<svg width="122" height="121" viewBox="0 0 122 121" fill="none" xmlns="http://www.w3.org/2000/svg">
<g clip-path="url(#clip0_13_15)">
<path d="M0.656677 0H121.657V121H0.656677V0Z" fill="#004F39"/>
<path d="M111.754 92.1418C110.868 86.6208 107.268 81.9856 96.6055 77.6609C92.9019 75.9586 88.7727 74.7395 87.542 71.9329C87.105 70.2996 87.0475 69.3795 87.3235 68.3903C88.1171 65.1813 91.9473 64.1806 94.9838 65.1008C96.9391 65.7564 98.7909 67.2632 99.9066 69.667C105.128 66.2856 105.117 66.3085 108.763 63.9852C107.429 61.9149 106.716 60.9601 105.842 60.0746C102.702 56.5665 98.4228 54.7607 91.5792 54.8987C90.3945 55.0482 89.1984 55.2091 88.0136 55.3588C84.5977 56.2214 81.3425 58.0157 79.4332 60.4196C73.7053 66.9182 75.3385 78.2935 82.3087 82.9748C89.1753 88.1277 99.2625 89.3009 100.551 94.1202C101.804 100.021 96.2146 101.93 90.6591 101.251C86.5644 100.4 84.2871 98.3184 81.8256 94.5343C77.294 97.1567 77.294 97.1567 72.6357 99.8366C73.7399 102.252 74.9015 103.345 76.7534 105.438C85.5178 114.329 107.452 113.892 111.386 100.435C111.547 99.9746 112.605 96.892 111.754 92.1418V92.1418ZM66.4361 55.6117H55.1182C55.1182 65.3883 55.0723 75.0959 55.0723 84.8726C55.0723 91.0951 55.3943 96.8 54.3822 98.5483C52.7259 101.987 48.4357 101.562 46.4804 100.895C44.4905 99.9169 43.4784 98.5252 42.3052 96.5585C41.9831 95.9949 41.7416 95.5578 41.661 95.5233C38.5901 97.3981 35.5304 99.2843 32.4594 101.159C33.9893 104.299 36.2436 107.025 39.1305 108.796C43.4438 111.384 49.2407 112.178 55.3023 110.786C59.2475 109.636 62.6519 107.255 64.4347 103.632C67.0111 98.8819 66.4591 93.1309 66.4361 86.7704C66.4936 76.3956 66.4361 66.0209 66.4361 55.6117Z" fill="#191E29"/>
</g>
<defs>
<clipPath id="clip0_13_15">
<rect width="121" height="121" fill="white" transform="translate(0.656677)"/>
</clipPath>
</defs>
</svg>
